<svg width="428" height="428" viewBox="0 0 428 428" fill="none" xmlns="http://www.w3.org/2000/svg">
<g style="mix-blend-mode:screen">
<path d="M155.21 419.766C178.939 426.546 203.662 429.17 228.285 427.523L214 214L155.21 419.766Z" fill="url(#paint0_radial_102_2)"/>
</g>
<g style="mix-blend-mode:screen">
<path d="M24.5037 313.434C32.7721 329.192 42.9737 343.856 54.8721 357.089L214 214L24.5037 313.434Z" fill="url(#paint1_radial_102_2)"/>
</g>
<g style="mix-blend-mode:screen">
<path d="M0.544922 229.262C3.08185 264.743 14.4234 299.032 33.5437 329.028L214 214L0.544922 229.262Z" fill="url(#paint2_radial_102_2)"/>
</g>
<g style="mix-blend-mode:screen">
<path d="M255.96 4.15401C234.685 -0.100027 212.887 -1.0941 191.314 1.20589L214 214L255.96 4.15401Z" fill="url(#paint3_radial_102_2)"/>
</g>
<g style="mix-blend-mode:screen">
<path d="M107.145 28.5872C88.3469 39.4205 71.3059 53.0494 56.6061 69.0064L214 214L107.145 28.5872Z" fill="url(#paint4_radial_102_2)"/>
</g>
<g style="mix-blend-mode:screen">
<path d="M417.732 279.493C427.286 249.773 430.222 218.322 426.334 187.347L214 214L417.732 279.493Z" fill="url(#paint5_radial_102_2)"/>
</g>
<g style="mix-blend-mode:screen">
<path d="M427.546 227.927C429.112 203.923 426.619 179.827 420.173 156.653L214 214L427.546 227.927Z" fill="url(#paint6_radial_102_2)"/>
</g>
<g style="mix-blend-mode:screen">
<path d="M384.847 85.1312C365.951 60.08 341.778 39.4907 314.039 24.8222L214 214L384.847 85.1312Z" fill="url(#paint7_radial_102_2)"/>
</g>
<g style="mix-blend-mode:screen">
<path d="M336.721 389.316C351.587 378.91 365.068 366.655 376.842 352.847L214 214L336.721 389.316Z" fill="url(#paint8_radial_102_2)"/>
</g>
<defs>
<radialGradient id="paint0_radial_102_2" cx="0" cy="0" r="1" gradientUnits="userSpaceOnUse" gradientTransform="translate(214 214) scale(214)">
<stop stop-color="white"/>
<stop offset="1" stop-color="white" stop-opacity="0"/>
</radialGradient>
<radialGradient id="paint1_radial_102_2" cx="0" cy="0" r="1" gradientUnits="userSpaceOnUse" gradientTransform="translate(214 214) scale(214)">
<stop stop-color="white"/>
<stop offset="1" stop-color="white" stop-opacity="0"/>
</radialGradient>
<radialGradient id="paint2_radial_102_2" cx="0" cy="0" r="1" gradientUnits="userSpaceOnUse" gradientTransform="translate(214 214) scale(214)">
<stop stop-color="white"/>
<stop offset="1" stop-color="white" stop-opacity="0"/>
</radialGradient>
<radialGradient id="paint3_radial_102_2" cx="0" cy="0" r="1" gradientUnits="userSpaceOnUse" gradientTransform="translate(214 214) scale(214)">
<stop stop-color="white"/>
<stop offset="1" stop-color="white" stop-opacity="0"/>
</radialGradient>
<radialGradient id="paint4_radial_102_2" cx="0" cy="0" r="1" gradientUnits="userSpaceOnUse" gradientTransform="translate(214 214) scale(214)">
<stop stop-color="white"/>
<stop offset="1" stop-color="white" stop-opacity="0"/>
</radialGradient>
<radialGradient id="paint5_radial_102_2" cx="0" cy="0" r="1" gradientUnits="userSpaceOnUse" gradientTransform="translate(214 214) scale(214)">
<stop stop-color="white"/>
<stop offset="1" stop-color="white" stop-opacity="0"/>
</radialGradient>
<radialGradient id="paint6_radial_102_2" cx="0" cy="0" r="1" gradientUnits="userSpaceOnUse" gradientTransform="translate(214 214) scale(214)">
<stop stop-color="white"/>
<stop offset="1" stop-color="white" stop-opacity="0"/>
</radialGradient>
<radialGradient id="paint7_radial_102_2" cx="0" cy="0" r="1" gradientUnits="userSpaceOnUse" gradientTransform="translate(214 214) scale(214)">
<stop stop-color="white"/>
<stop offset="1" stop-color="white" stop-opacity="0"/>
</radialGradient>
<radialGradient id="paint8_radial_102_2" cx="0" cy="0" r="1" gradientUnits="userSpaceOnUse" gradientTransform="translate(214 214) scale(214)">
<stop stop-color="white"/>
<stop offset="1" stop-color="white" stop-opacity="0"/>
</radialGradient>
</defs>
</svg>
