<svg width="428" height="428" viewBox="0 0 428 428" fill="none" xmlns="http://www.w3.org/2000/svg">
<g style="mix-blend-mode:screen">
<path d="M48.0329 349.096C57.4689 360.688 68.0934 371.26 79.7324 380.638L214 214L48.0329 349.096Z" fill="url(#paint0_radial_102_12)"/>
</g>
<g style="mix-blend-mode:screen">
<path d="M24.5037 313.434C32.7721 329.192 42.9737 343.856 54.8722 357.089L214 214L24.5037 313.434Z" fill="url(#paint1_radial_102_12)"/>
</g>
<g style="mix-blend-mode:screen">
<path d="M72.0822 53.8271C45.4579 77.4171 25.1339 107.272 12.9483 140.691L214 214L72.0822 53.8271Z" fill="url(#paint2_radial_102_12)"/>
</g>
<g style="mix-blend-mode:screen">
<path d="M214 9.35424e-06C192.578 1.02906e-05 171.278 3.21645 150.811 9.54177L214 214L214 9.35424e-06Z" fill="url(#paint3_radial_102_12)"/>
</g>
<g style="mix-blend-mode:screen">
<path d="M107.145 28.5872C88.3469 39.4205 71.3059 53.0494 56.6061 69.0064L214 214L107.145 28.5872Z" fill="url(#paint4_radial_102_12)"/>
</g>
<g style="mix-blend-mode:screen">
<path d="M417.732 279.493C427.286 249.773 430.222 218.322 426.334 187.347L214 214L417.732 279.493Z" fill="url(#paint5_radial_102_12)"/>
</g>
<g style="mix-blend-mode:screen">
<path d="M399.133 106.661C393.202 96.4317 386.434 86.7115 378.897 77.6003L214 214L399.133 106.661Z" fill="url(#paint6_radial_102_12)"/>
</g>
<g style="mix-blend-mode:screen">
<path d="M384.847 85.1312C373.096 69.5522 359.269 55.6536 343.752 43.822L214 214L384.847 85.1312Z" fill="url(#paint7_radial_102_12)"/>
</g>
<g style="mix-blend-mode:screen">
<path d="M259.284 423.154C295.859 415.235 329.718 397.864 357.482 372.773L214 214L259.284 423.154Z" fill="url(#paint8_radial_102_12)"/>
</g>
<defs>
<radialGradient id="paint0_radial_102_12" cx="0" cy="0" r="1" gradientUnits="userSpaceOnUse" gradientTransform="translate(214 214) scale(214)">
<stop stop-color="white"/>
<stop offset="1" stop-color="white" stop-opacity="0"/>
</radialGradient>
<radialGradient id="paint1_radial_102_12" cx="0" cy="0" r="1" gradientUnits="userSpaceOnUse" gradientTransform="translate(214 214) scale(214)">
<stop stop-color="white"/>
<stop offset="1" stop-color="white" stop-opacity="0"/>
</radialGradient>
<radialGradient id="paint2_radial_102_12" cx="0" cy="0" r="1" gradientUnits="userSpaceOnUse" gradientTransform="translate(214 214) scale(214)">
<stop stop-color="white"/>
<stop offset="1" stop-color="white" stop-opacity="0"/>
</radialGradient>
<radialGradient id="paint3_radial_102_12" cx="0" cy="0" r="1" gradientUnits="userSpaceOnUse" gradientTransform="translate(214 214) scale(214)">
<stop stop-color="white"/>
<stop offset="1" stop-color="white" stop-opacity="0"/>
</radialGradient>
<radialGradient id="paint4_radial_102_12" cx="0" cy="0" r="1" gradientUnits="userSpaceOnUse" gradientTransform="translate(214 214) scale(214)">
<stop stop-color="white"/>
<stop offset="1" stop-color="white" stop-opacity="0"/>
</radialGradient>
<radialGradient id="paint5_radial_102_12" cx="0" cy="0" r="1" gradientUnits="userSpaceOnUse" gradientTransform="translate(214 214) scale(214)">
<stop stop-color="white"/>
<stop offset="1" stop-color="white" stop-opacity="0"/>
</radialGradient>
<radialGradient id="paint6_radial_102_12" cx="0" cy="0" r="1" gradientUnits="userSpaceOnUse" gradientTransform="translate(214 214) scale(214)">
<stop stop-color="white"/>
<stop offset="1" stop-color="white" stop-opacity="0"/>
</radialGradient>
<radialGradient id="paint7_radial_102_12" cx="0" cy="0" r="1" gradientUnits="userSpaceOnUse" gradientTransform="translate(214 214) scale(214)">
<stop stop-color="white"/>
<stop offset="1" stop-color="white" stop-opacity="0"/>
</radialGradient>
<radialGradient id="paint8_radial_102_12" cx="0" cy="0" r="1" gradientUnits="userSpaceOnUse" gradientTransform="translate(214 214) scale(214)">
<stop stop-color="white"/>
<stop offset="1" stop-color="white" stop-opacity="0"/>
</radialGradient>
</defs>
</svg>
